<svg class="mmischitelli-svg" viewBox="0 0 600 81" 
  xmlns="http://www.w3.org/2000/svg">
  <title>Michele Mischitelli Logotype</title>
  <g fill="none" fill-rule="evenodd">
    <path d="M542,509.436a8.138,8.138,0,0,0,8.5-8.5v-18a8.138,8.138,0,0,0-8.5-8.5H496.5v-153.5c0-40-32-66.5-85-66.5-28.5,0-73.5,11-89,55H317c-6-33-36.5-55-84-55-28.5,0-73.5,11-89,55h-2l-3.5-40c0-4.5-3-8-10-8h-73c-5,0-8,2.5-8,8.5v18c0,6,2,8.5,9,8.5H109v178H61a8.138,8.138,0,0,0-8.5,8.5v18a8.138,8.138,0,0,0,8.5,8.5H182.5a8.138,8.138,0,0,0,8.5-8.5v-18a8.138,8.138,0,0,0-8.5-8.5H139v-108.5c0-50.5,50-75,91.5-75,31,0,57.5,13,57.5,38.5v145H239.5c-5.5,0-8.5,3.5-8.5,8.5v18a8.138,8.138,0,0,0,8.5,8.5H362c6.5,0,10-3.5,10-8.5v-18a8.138,8.138,0,0,0-8.5-8.5H318v-117c5-45,51.5-66.5,91-66.5,31,0,57.5,13,57.5,38.5v145H419a8.138,8.138,0,0,0-8.5,8.5v18a8.138,8.138,0,0,0,8.5,8.5H542Zm141.5-319.5c0-17.5-15-30-32-30-17.5,0-32,12.5-32,30,0,17,14.5,29.5,32,29.5C668.49,219.436,683.49,206.936,683.49,189.936Zm34,319.5c5,0,8-2.5,8-8.5v-18c0-6-2-8.5-9-8.5h-45.5v-201c0-7-3.5-12-11-12h-74c-5,0-8,2.5-8,8.5v18c0,6,2,8.5,9,8.5h54v178h-50c-7,0-9,2.5-9,8.5v18c0,6,3,8.5,8,8.5h127.5Zm269-72a3.76,3.76,0,0,0-2.5-3.5l-7-2.5c-1.5-.5-3.5,0-4,1.5-11,27.5-44,47.5-93,47.5-63.5,0-95.5-35-95.5-95,0-59,37-96,98.5-96,41.5,0,79,16.5,85,51,0.5,3,2,4.5,4.5,3.5l8-2.5a4.8,4.8,0,0,0,3.5-4.5v-42.5a9,9,0,0,0-3.5-7.5c-22.5-18-56-32.5-98.5-32.5-71,0-129,45-129,131s50.5,130,125,130c52,0,86.5-20.5,105-35.5a9,9,0,0,0,3.5-7.5v-35Zm343.5,72a8.138,8.138,0,0,0,8.5-8.5v-18a8.138,8.138,0,0,0-8.5-8.5h-45.5v-153.5c0-40-32-66.5-85-66.5-28.5,0-73.5,11-89,55h-5v-142c0-4.5-3-8-10-8h-73.5c-5,0-8,2.5-8,8.5v18c0,6,2,8.5,9,8.5h52.5v280h-48a8.138,8.138,0,0,0-8.5,8.5v18a8.138,8.138,0,0,0,8.5,8.5h121.5a8.138,8.138,0,0,0,8.5-8.5v-18a8.138,8.138,0,0,0-8.5-8.5h-43.5v-108c0-51,50.5-76,92.5-76,30,0,56.5,14,56.5,39.5v144.5h-47.5a8.138,8.138,0,0,0-8.5,8.5v18a8.138,8.138,0,0,0,8.5,8.5h123Zm254.99-67.5c0-1.5-.5-2-2-3l-4.5-2.5a2.006,2.006,0,0,0-3,1c-14,27-50.5,43-87.5,43-46.5,0-92-25-95.5-84.5h197.5a5.777,5.777,0,0,0,6-6v-23c0-59.5-35-112.5-112-112.5-68,0-123,45-123,129,0,88,62.5,132,127,132,41.5,0,73-14.5,93.5-31a9,9,0,0,0,3.5-7.5v-35Zm-193-78.5c5.5-39,33.5-74,90-74,49,0,84.5,25.5,84.5,74h-174.5Zm373.5,146c5,0,8-2.5,8-8.5v-18c0-6-2-8.5-9-8.5h-48v-303c0-7-3.5-12-11-12h-74c-5,0-8,2.5-8,8.5v18c0,6,2,8.5,9,8.5h54v280h-50c-7,0-9,2.5-9,8.5v18c0,6,3,8.5,8,8.5h130Zm257-67.5c0-1.5-.5-2-2-3l-4.5-2.5a2.006,2.006,0,0,0-3,1c-14,27-50.5,43-87.5,43-46.5,0-92-25-95.5-84.5h197.5a5.777,5.777,0,0,0,6-6v-23c0-59.5-35-112.5-112-112.5-68,0-123,45-123,129,0,88,62.5,132,127,132,41.5,0,73-14.5,93.5-31a9,9,0,0,0,3.5-7.5v-35Zm-193-78.5c5.5-39,33.5-74,90-74,49,0,84.5,25.5,84.5,74h-174.5Zm856,146a8.138,8.138,0,0,0,8.5-8.5v-18a8.138,8.138,0,0,0-8.5-8.5h-45.5v-153.5c0-40-32-66.5-85-66.5-28.5,0-73.5,11-89,55h-5.5c-6-33-36.5-55-84-55-28.5,0-73.5,11-89,55h-2l-3.5-40c0-4.5-3-8-10-8h-73c-5,0-8,2.5-8,8.5v18c0,6,2,8.5,9,8.5h52.5v178h-48a8.138,8.138,0,0,0-8.5,8.5v18a8.138,8.138,0,0,0,8.5,8.5h121.5a8.138,8.138,0,0,0,8.5-8.5v-18a8.138,8.138,0,0,0-8.5-8.5h-43.5v-108.5c0-50.5,50-75,91.5-75,31,0,57.5,13,57.5,38.5v145h-48.5c-5.5,0-8.5,3.5-8.5,8.5v18a8.138,8.138,0,0,0,8.5,8.5h122.5c6.5,0,10-3.5,10-8.5v-18a8.138,8.138,0,0,0-8.5-8.5h-45.5v-117c5-45,51.5-66.5,91-66.5,31,0,57.5,13,57.5,38.5v145h-47.5a8.138,8.138,0,0,0-8.5,8.5v18a8.138,8.138,0,0,0,8.5,8.5h123Zm141.5-319.5c0-17.5-15-30-32-30-17.5,0-32,12.5-32,30,0,17,14.5,29.5,32,29.5C2811.98,219.436,2826.98,206.936,2826.98,189.936Zm34,319.5c5,0,8-2.5,8-8.5v-18c0-6-2-8.5-9-8.5h-45.5v-201c0-7-3.5-12-11-12h-74c-5,0-8,2.5-8,8.5v18c0,6,2,8.5,9,8.5h54v178h-50c-7,0-9,2.5-9,8.5v18c0,6,3,8.5,8,8.5h127.5Zm247.49-165.5c1-.5,2-1,2-2v-50a4.57,4.57,0,0,0-1.5-3.5c-25-16.5-60.5-34-105.5-34-65,0-98,36-98,78.5,0,50.5,46.5,62.5,101,68,44.5,4.5,78.5,8.5,78.5,36.5,0,23.5-24,45-71.5,45-46,0-83-21.5-96-67-0.5-1.5-1.5-2-2.5-1.5l-7.5,2.5a2.75,2.75,0,0,0-1.5,2.5v53c0,2.5,1,4,3,6,22.5,19,59.5,37.5,104,37.5,60.5,0,103.5-34,103.5-81,0-45.5-40-59.5-98.5-65-49.5-4.5-81-8-81-38,0-27,25-44,69-44,40,0,79,16.5,92.5,57,0.5,1,.5,2.5,2,2Zm287.49,93.5a3.76,3.76,0,0,0-2.5-3.5l-7-2.5c-1.5-.5-3.5,0-4,1.5-11,27.5-44,47.5-93,47.5-63.5,0-95.5-35-95.5-95,0-59,37-96,98.5-96,41.5,0,79,16.5,85,51,0.5,3,2,4.5,4.5,3.5l8-2.5a4.8,4.8,0,0,0,3.5-4.5v-42.5a9,9,0,0,0-3.5-7.5c-22.5-18-56-32.5-98.5-32.5-71,0-129,45-129,131s50.5,130,125,130c52,0,86.5-20.5,105-35.5a9,9,0,0,0,3.5-7.5v-35Zm343.5,72a8.138,8.138,0,0,0,8.5-8.5v-18a8.138,8.138,0,0,0-8.5-8.5h-45.5v-153.5c0-40-32-66.5-85-66.5-28.5,0-73.5,11-89,55h-5v-142c0-4.5-3-8-10-8h-73.5c-5,0-8,2.5-8,8.5v18c0,6,2,8.5,9,8.5h52.5v280h-48a8.138,8.138,0,0,0-8.5,8.5v18a8.138,8.138,0,0,0,8.5,8.5h121.5a8.138,8.138,0,0,0,8.5-8.5v-18a8.138,8.138,0,0,0-8.5-8.5h-43.5v-108c0-51,50.5-76,92.5-76,30,0,56.5,14,56.5,39.5v144.5h-47.5a8.138,8.138,0,0,0-8.5,8.5v18a8.138,8.138,0,0,0,8.5,8.5h123Zm141.49-319.5c0-17.5-15-30-32-30-17.5,0-32,12.5-32,30,0,17,14.5,29.5,32,29.5C3865.95,219.436,3880.95,206.936,3880.95,189.936Zm34,319.5c5,0,8-2.5,8-8.5v-18c0-6-2-8.5-9-8.5h-45.5v-201c0-7-3.5-12-11-12h-74c-5,0-8,2.5-8,8.5v18c0,6,2,8.5,9,8.5h54v178h-50c-7,0-9,2.5-9,8.5v18c0,6,3,8.5,8,8.5h127.5Zm194-80.5c0,38-28.5,51.5-55,51.5-24.5,0-51-9.5-51-40.5v-143.5h121.5c4,0,6-2.5,6-5.5v-24.5c0-3-1.5-5-6-5h-121.5v-46c0-5-1.5-7.5-5.5-7.5h-1c-2.5,0-4.5,1.5-7,4.5l-57.5,66c-2.5,3-3.5,5.5-3.5,9v1c0,6,2,8,9,8h35.5v145c0,47,27.5,74,80.5,74,40,0,85.5-21.5,85.5-86.5v-53c0-4-2.5-5-5.5-5h-18c-5,0-6.5,2-6.5,5v53Zm301.99,13c0-1.5-.5-2-2-3l-4.5-2.5a2.006,2.006,0,0,0-3,1c-14,27-50.5,43-87.5,43-46.5,0-92-25-95.5-84.5h197.5a5.777,5.777,0,0,0,6-6v-23c0-59.5-35-112.5-112-112.5-68,0-123,45-123,129,0,88,62.5,132,127,132,41.5,0,73-14.5,93.5-31a9,9,0,0,0,3.5-7.5v-35Zm-193-78.5c5.5-39,33.5-74,90-74,49,0,84.5,25.5,84.5,74h-174.5Zm373.5,146c5,0,8-2.5,8-8.5v-18c0-6-2-8.5-9-8.5h-48v-303c0-7-3.5-12-11-12h-74c-5,0-8,2.5-8,8.5v18c0,6,2,8.5,9,8.5h54v280h-50c-7,0-9,2.5-9,8.5v18c0,6,3,8.5,8,8.5h130Zm177.5,0c5,0,8-2.5,8-8.5v-18c0-6-2-8.5-9-8.5h-48v-303c0-7-3.5-12-11-12h-74c-5,0-8,2.5-8,8.5v18c0,6,2,8.5,9,8.5h54v280h-50c-7,0-9,2.5-9,8.5v18c0,6,3,8.5,8,8.5h130Zm141-319.5c0-17.5-15-30-32-30-17.5,0-32,12.5-32,30,0,17,14.5,29.5,32,29.5C4894.94,219.436,4909.94,206.936,4909.94,189.936Zm34,319.5c5,0,8-2.5,8-8.5v-18c0-6-2-8.5-9-8.5h-45.5v-201c0-7-3.5-12-11-12h-74c-5,0-8,2.5-8,8.5v18c0,6,2,8.5,9,8.5h54v178h-50c-7,0-9,2.5-9,8.5v18c0,6,3,8.5,8,8.5h127.5Z" transform="translate(-47.5 -159.438)" fill="#2D3134"/>
  </g>
</svg>